<svg xmlns="http://www.w3.org/2000/svg" xmlns:xlink="http://www.w3.org/1999/xlink" width="500" zoomAndPan="magnify" viewBox="0 0 375 374.999991" height="500" preserveAspectRatio="xMidYMid meet" version="1.0"><defs><g/><clipPath id="42e61292f3"><path d="M 70 209 L 126 209 L 126 278 L 70 278 Z M 70 209 " clip-rule="nonzero"/></clipPath><clipPath id="3781215436"><path d="M 60.976562 262.933594 L 124.917969 209.625 L 137.40625 224.601562 L 73.460938 277.910156 Z M 60.976562 262.933594 " clip-rule="nonzero"/></clipPath><clipPath id="ce655e4e58"><path d="M 60.976562 262.933594 L 124.917969 209.625 L 137.40625 224.601562 L 73.460938 277.910156 Z M 60.976562 262.933594 " clip-rule="nonzero"/></clipPath><clipPath id="bd1e44e9d5"><path d="M 60.976562 262.933594 L 124.917969 209.625 L 137.40625 224.601562 L 73.460938 277.910156 Z M 60.976562 262.933594 " clip-rule="nonzero"/></clipPath></defs><rect x="-37.5" width="450" fill="#ffffff" y="-37.499999" height="449.999989" fill-opacity="1"/><rect x="-37.5" width="450" fill="#ffffff" y="-37.499999" height="449.999989" fill-opacity="1"/><rect x="-37.5" width="450" fill="#e7ded9" y="-37.499999" height="449.999989" fill-opacity="1"/><g clip-path="url(#42e61292f3)"><g clip-path="url(#3781215436)"><g clip-path="url(#ce655e4e58)"><g clip-path="url(#bd1e44e9d5)"><path fill="#53494c" d="M 75.199219 275.539062 C 75.054688 275.046875 74.625 274.65625 74.144531 274.605469 C 74.101562 274.601562 74.046875 274.589844 73.996094 274.59375 C 73.921875 274.605469 73.832031 274.601562 73.742188 274.605469 C 73.742188 274.605469 73.730469 274.605469 73.726562 274.597656 C 73.722656 274.601562 73.722656 274.601562 73.722656 274.601562 C 73.3125 274.578125 72.8125 274.417969 72.460938 274.277344 C 72.332031 274.132812 72.199219 273.953125 72.0625 273.738281 C 71.339844 272.652344 71.296875 270.929688 71.925781 268.558594 C 72.261719 267.199219 72.847656 265.683594 73.6875 264.007812 C 74.574219 262.285156 75.804688 260.398438 77.394531 258.363281 C 80.863281 253.976562 84.738281 250.382812 89.023438 247.570312 C 93.261719 244.8125 97.570312 241.933594 101.957031 238.917969 C 104.394531 237.3125 106.765625 235.574219 109.054688 233.71875 C 111.34375 231.859375 113.605469 229.726562 115.835938 227.324219 C 120.695312 222.101562 123.683594 217.496094 124.796875 213.515625 C 125.039062 212.597656 125.269531 211.777344 125.492188 211.035156 C 125.390625 210.808594 125.292969 210.582031 125.191406 210.355469 C 125.011719 210.1875 124.828125 210.019531 124.644531 209.855469 C 124.378906 210.789062 124.074219 211.851562 123.71875 213.082031 C 122.5 217.066406 119.617188 221.515625 115.050781 226.433594 C 111.1875 230.632812 107.050781 234.089844 102.664062 236.792969 C 98.226562 239.550781 93.890625 242.460938 89.660156 245.515625 C 87.371094 247.175781 85.125 248.980469 82.9375 250.9375 C 80.753906 252.886719 78.699219 255.117188 76.761719 257.613281 C 74.882812 260.066406 73.453125 262.257812 72.46875 264.183594 C 71.585938 266.105469 71.003906 267.773438 70.714844 269.183594 C 70.199219 271.945312 70.46875 273.898438 71.535156 275.023438 L 71.921875 275.390625 C 72.023438 275.496094 72.121094 275.582031 72.21875 275.660156 C 72.433594 275.882812 72.632812 276.125 72.78125 276.355469 C 72.890625 276.515625 73.03125 276.664062 73.171875 276.800781 C 73.527344 277.144531 74.226562 277.167969 74.710938 276.859375 " fill-opacity="1" fill-rule="nonzero"/></g></g></g></g><path stroke-linecap="butt" transform="matrix(0.748823, 0, 0, 0.75, 127.661641, 109.467312)" fill="none" stroke-linejoin="miter" d="M -0.00198267 1.001917 L 179.289713 1.001917 " stroke="#53494c" stroke-width="2" stroke-opacity="1" stroke-miterlimit="4"/><path stroke-linecap="butt" transform="matrix(0.000000000000000046, 0.748823, -0.75, 0.000000000000000046, 262.126305, 109.471063)" fill="none" stroke-linejoin="miter" d="M 0.00212739 1.00174 L 179.293823 1.00174 " stroke="#53494c" stroke-width="2" stroke-opacity="1" stroke-miterlimit="4"/><path stroke-linecap="butt" transform="matrix(0.748823, 0, 0, 0.75, 127.661641, 242.435742)" fill="none" stroke-linejoin="miter" d="M -0.00198267 1.002344 L 179.289713 1.002344 " stroke="#53494c" stroke-width="2" stroke-opacity="1" stroke-miterlimit="4"/><path stroke-linecap="butt" transform="matrix(0.000000000000000046, 0.753007, -0.75, 0.000000000000000046, 129.159766, 109.469186)" fill="none" stroke-linejoin="miter" d="M -0.000579559 0.99948 L 89.645242 0.99948 " stroke="#53494c" stroke-width="2" stroke-opacity="1" stroke-miterlimit="4"/><path stroke-linecap="butt" transform="matrix(0.000000000000000045, 0.742523, -0.75, 0.000000000000000046, 129.157818, 209.842061)" fill="none" stroke-linejoin="miter" d="M 0.00227411 1.00209 L 45.465922 1.00209 " stroke="#53494c" stroke-width="2" stroke-opacity="1" stroke-miterlimit="4"/><g fill="#53494c" fill-opacity="1"><g transform="translate(120.714306, 195.076526)"><g><path d="M 52.730469 -33.039062 C 22.816406 -77.066406 59.152344 -74.953125 93.796875 -74.871094 C 90.164062 -70.476562 88.390625 -53.914062 86.277344 -36.167969 C 75.882812 -33.210938 64.222656 -30.84375 62.195312 -34.222656 L 60.925781 -34.222656 C 63.800781 -28.730469 74.871094 -32.027344 86.109375 -34.730469 C 82.8125 -7.691406 76.558594 24 55.011719 28.054688 C 36.335938 31.519531 30.167969 8.957031 36.335938 -8.621094 C 61.941406 -10.816406 62.953125 -19.351562 57.714844 -22.476562 C 52.136719 -25.773438 39.800781 -23.660156 34.898438 -9.632812 C 18.253906 -7.941406 4.480469 0.421875 2.367188 17.152344 C 2.113281 17.40625 3.972656 17.152344 4.648438 17.152344 C 6.335938 0.761719 18.675781 -6.421875 34.5625 -8.449219 C 29.324219 9.210938 34.222656 29.914062 52.222656 29.574219 C 79.347656 28.984375 87.628906 -6.507812 91.855469 -36 C 100.894531 -38.027344 109.175781 -38.363281 112.472656 -34.140625 C 112.136719 -34.054688 113.234375 -34.308594 113.402344 -34.222656 C 110.78125 -39.546875 101.742188 -39.125 92.023438 -37.351562 C 94.304688 -53.742188 95.488281 -69.121094 98.105469 -74.699219 C 114.078125 -74.53125 125.484375 -74.699219 132.414062 -78.082031 C 133.34375 -78.417969 133.175781 -80.445312 131.738281 -79.601562 C 107.996094 -68.445312 5.832031 -96.5 51.546875 -33.039062 C 51.96875 -33.039062 51.292969 -33.125 52.730469 -33.039062 Z M 56.953125 -20.535156 C 60.164062 -18.082031 59.488281 -12.167969 36.675781 -9.886719 C 41.238281 -22.476562 52.8125 -23.660156 56.953125 -20.535156 Z M 56.953125 -20.535156 "/></g></g></g><g fill="#53494c" fill-opacity="1"><g transform="translate(116.821037, 275.205774)"><g><path d="M 0.9375 0 L 0.9375 -0.25 L 1.265625 -0.25 C 2.617188 -0.25 3.296875 -0.84375 3.296875 -2.03125 L 3.296875 -15.765625 C 3.296875 -16.890625 2.617188 -17.453125 1.265625 -17.453125 L 0.9375 -17.453125 L 0.9375 -17.703125 L 13.4375 -17.703125 L 13.59375 -13.359375 L 13.34375 -13.359375 L 13.296875 -14.1875 C 13.222656 -15.425781 12.929688 -16.28125 12.421875 -16.75 C 11.910156 -17.21875 11.023438 -17.453125 9.765625 -17.453125 L 5.796875 -17.453125 L 5.796875 -8.828125 L 12.03125 -8.828125 L 12.03125 -8.578125 L 5.796875 -8.578125 L 5.796875 -2.03125 C 5.796875 -0.84375 6.472656 -0.25 7.828125 -0.25 L 8.15625 -0.25 L 8.15625 0 Z M 0.9375 0 "/></g></g></g><g fill="#53494c" fill-opacity="1"><g transform="translate(135.933056, 275.205774)"><g><path d="M 0.9375 0 L 0.9375 -0.25 L 1.265625 -0.25 C 2.617188 -0.25 3.296875 -0.84375 3.296875 -2.03125 L 3.296875 -15.765625 C 3.296875 -16.890625 2.617188 -17.453125 1.265625 -17.453125 L 0.9375 -17.453125 L 0.9375 -17.703125 L 8.15625 -17.703125 L 8.15625 -17.453125 L 7.828125 -17.453125 C 6.472656 -17.453125 5.796875 -16.859375 5.796875 -15.671875 L 5.796875 -0.25 L 10.390625 -0.25 C 11.265625 -0.25 11.960938 -0.375 12.484375 -0.625 C 13.003906 -0.882812 13.390625 -1.328125 13.640625 -1.953125 C 13.890625 -2.585938 14.046875 -3.441406 14.109375 -4.515625 L 14.15625 -5.328125 L 14.40625 -5.328125 L 14.234375 0 Z M 0.9375 0 "/></g></g></g><g fill="#53494c" fill-opacity="1"><g transform="translate(155.862983, 275.205774)"><g><path d="M 9.203125 0.25 C 7.453125 0.25 5.992188 -0.128906 4.828125 -0.890625 C 3.671875 -1.648438 2.804688 -2.71875 2.234375 -4.09375 C 1.671875 -5.46875 1.390625 -7.070312 1.390625 -8.90625 C 1.390625 -10.738281 1.671875 -12.332031 2.234375 -13.6875 C 2.804688 -15.039062 3.675781 -16.09375 4.84375 -16.84375 C 6.007812 -17.601562 7.46875 -17.984375 9.21875 -17.984375 C 10.875 -17.984375 12.28125 -17.601562 13.4375 -16.84375 C 14.59375 -16.09375 15.472656 -15.035156 16.078125 -13.671875 C 16.679688 -12.304688 16.984375 -10.707031 16.984375 -8.875 C 16.984375 -7.039062 16.679688 -5.441406 16.078125 -4.078125 C 15.472656 -2.710938 14.59375 -1.648438 13.4375 -0.890625 C 12.28125 -0.128906 10.867188 0.25 9.203125 0.25 Z M 9.203125 0 C 10.972656 0 12.253906 -0.703125 13.046875 -2.109375 C 13.835938 -3.515625 14.234375 -5.769531 14.234375 -8.875 C 14.234375 -11.988281 13.835938 -14.242188 13.046875 -15.640625 C 12.253906 -17.035156 10.976562 -17.734375 9.21875 -17.734375 C 7.457031 -17.734375 6.171875 -17.035156 5.359375 -15.640625 C 4.546875 -14.242188 4.140625 -11.988281 4.140625 -8.875 C 4.140625 -5.769531 4.539062 -3.515625 5.34375 -2.109375 C 6.144531 -0.703125 7.429688 0 9.203125 0 Z M 9.203125 0 "/></g></g></g><g fill="#53494c" fill-opacity="1"><g transform="translate(178.742347, 275.205774)"><g><path d="M 8.96875 0.25 C 7.019531 0.25 5.492188 -0.175781 4.390625 -1.03125 C 3.285156 -1.894531 2.734375 -3.335938 2.734375 -5.359375 L 2.734375 -15.765625 C 2.734375 -16.890625 2.050781 -17.453125 0.6875 -17.453125 L 0.375 -17.453125 L 0.375 -17.703125 L 7.59375 -17.703125 L 7.59375 -17.453125 L 7.265625 -17.453125 C 5.910156 -17.453125 5.234375 -16.867188 5.234375 -15.703125 L 5.234375 -5.203125 C 5.234375 -3.878906 5.410156 -2.84375 5.765625 -2.09375 C 6.117188 -1.351562 6.609375 -0.835938 7.234375 -0.546875 C 7.867188 -0.265625 8.582031 -0.125 9.375 -0.125 C 11.0625 -0.125 12.382812 -0.566406 13.34375 -1.453125 C 14.3125 -2.335938 14.796875 -3.554688 14.796875 -5.109375 L 14.796875 -15.765625 C 14.796875 -16.890625 14.117188 -17.453125 12.765625 -17.453125 L 12.453125 -17.453125 L 12.453125 -17.703125 L 17.40625 -17.703125 L 17.40625 -17.453125 L 17.078125 -17.453125 C 15.722656 -17.453125 15.046875 -16.859375 15.046875 -15.671875 L 15.046875 -5.0625 C 15.046875 -3.40625 14.523438 -2.101562 13.484375 -1.15625 C 12.441406 -0.21875 10.9375 0.25 8.96875 0.25 Z M 8.96875 0.25 "/></g></g></g><g fill="#53494c" fill-opacity="1"><g transform="translate(201.002089, 275.205774)"><g><path d="M 0.9375 0 L 0.9375 -0.25 L 1.265625 -0.25 C 2.617188 -0.25 3.296875 -0.84375 3.296875 -2.03125 L 3.296875 -15.765625 C 3.296875 -16.890625 2.617188 -17.453125 1.265625 -17.453125 L 0.9375 -17.453125 L 0.9375 -17.703125 L 7.609375 -17.703125 C 9.765625 -17.703125 11.363281 -17.300781 12.40625 -16.5 C 13.457031 -15.695312 13.984375 -14.550781 13.984375 -13.0625 C 13.984375 -12.09375 13.785156 -11.300781 13.390625 -10.6875 C 13.003906 -10.070312 12.507812 -9.59375 11.90625 -9.25 C 11.3125 -8.90625 10.691406 -8.640625 10.046875 -8.453125 L 13.546875 -3 C 14.222656 -1.9375 14.757812 -1.210938 15.15625 -0.828125 C 15.550781 -0.441406 15.945312 -0.25 16.34375 -0.25 L 16.421875 -0.25 L 16.421875 0 L 16.0625 0 C 15.289062 0 14.648438 -0.0234375 14.140625 -0.078125 C 13.640625 -0.140625 13.222656 -0.242188 12.890625 -0.390625 C 12.566406 -0.546875 12.273438 -0.765625 12.015625 -1.046875 C 11.753906 -1.335938 11.476562 -1.71875 11.1875 -2.1875 L 7.359375 -8.25 L 5.796875 -8.25 L 5.796875 -2.03125 C 5.796875 -0.84375 6.472656 -0.25 7.828125 -0.25 L 8.15625 -0.25 L 8.15625 0 Z M 5.796875 -8.5 L 7.53125 -8.5 C 8.90625 -8.5 9.878906 -8.832031 10.453125 -9.5 C 11.035156 -10.175781 11.328125 -11.304688 11.328125 -12.890625 C 11.328125 -14.523438 11.03125 -15.691406 10.4375 -16.390625 C 9.84375 -17.097656 8.859375 -17.453125 7.484375 -17.453125 L 5.796875 -17.453125 Z M 5.796875 -8.5 "/></g></g></g><g fill="#53494c" fill-opacity="1"><g transform="translate(221.749928, 275.205774)"><g><path d="M 0.9375 0 L 0.9375 -0.25 L 1.265625 -0.25 C 2.617188 -0.25 3.296875 -0.84375 3.296875 -2.03125 L 3.296875 -15.765625 C 3.296875 -16.890625 2.617188 -17.453125 1.265625 -17.453125 L 0.9375 -17.453125 L 0.9375 -17.703125 L 8.15625 -17.703125 L 8.15625 -17.453125 L 7.828125 -17.453125 C 6.472656 -17.453125 5.796875 -16.859375 5.796875 -15.671875 L 5.796875 -2.03125 C 5.796875 -0.84375 6.472656 -0.25 7.828125 -0.25 L 8.15625 -0.25 L 8.15625 0 Z M 0.9375 0 "/></g></g></g><g fill="#53494c" fill-opacity="1"><g transform="translate(235.334842, 275.205774)"><g><path d="M 6.390625 0.25 C 4.753906 0.25 3.476562 -0.078125 2.5625 -0.734375 C 1.644531 -1.390625 1.1875 -2.203125 1.1875 -3.171875 C 1.1875 -4.328125 1.78125 -4.90625 2.96875 -4.90625 C 2.988281 -3.289062 3.289062 -2.066406 3.875 -1.234375 C 4.46875 -0.410156 5.367188 0 6.578125 0 C 7.628906 0 8.476562 -0.300781 9.125 -0.90625 C 9.78125 -1.519531 10.109375 -2.441406 10.109375 -3.671875 C 10.109375 -4.410156 9.972656 -5.007812 9.703125 -5.46875 C 9.429688 -5.9375 8.992188 -6.359375 8.390625 -6.734375 C 7.785156 -7.109375 7 -7.515625 6.03125 -7.953125 C 5.507812 -8.203125 4.976562 -8.472656 4.4375 -8.765625 C 3.90625 -9.054688 3.410156 -9.40625 2.953125 -9.8125 C 2.503906 -10.21875 2.144531 -10.707031 1.875 -11.28125 C 1.601562 -11.863281 1.46875 -12.566406 1.46875 -13.390625 C 1.46875 -14.878906 1.941406 -16.007812 2.890625 -16.78125 C 3.835938 -17.5625 5.101562 -17.953125 6.6875 -17.953125 C 7.65625 -17.953125 8.5 -17.816406 9.21875 -17.546875 C 9.945312 -17.285156 10.515625 -16.941406 10.921875 -16.515625 C 11.328125 -16.085938 11.53125 -15.613281 11.53125 -15.09375 C 11.53125 -14.613281 11.347656 -14.238281 10.984375 -13.96875 C 10.617188 -13.695312 10.148438 -13.5625 9.578125 -13.5625 C 9.578125 -14.9375 9.351562 -15.96875 8.90625 -16.65625 C 8.457031 -17.351562 7.710938 -17.703125 6.671875 -17.703125 C 5.710938 -17.703125 4.945312 -17.410156 4.375 -16.828125 C 3.800781 -16.253906 3.515625 -15.40625 3.515625 -14.28125 C 3.515625 -13.46875 3.660156 -12.8125 3.953125 -12.3125 C 4.253906 -11.820312 4.703125 -11.398438 5.296875 -11.046875 C 5.898438 -10.691406 6.664062 -10.300781 7.59375 -9.875 C 8.414062 -9.488281 9.175781 -9.085938 9.875 -8.671875 C 10.582031 -8.265625 11.148438 -7.742188 11.578125 -7.109375 C 12.003906 -6.472656 12.21875 -5.648438 12.21875 -4.640625 C 12.21875 -3.128906 11.707031 -1.9375 10.6875 -1.0625 C 9.675781 -0.1875 8.242188 0.25 6.390625 0.25 Z M 6.390625 0.25 "/></g></g></g><g fill="#53494c" fill-opacity="1"><g transform="translate(253.306746, 275.205774)"><g><path d="M 0.96875 0 L 0.96875 -0.25 L 1.296875 -0.25 C 2.648438 -0.25 3.328125 -0.84375 3.328125 -2.03125 L 3.328125 -15.765625 C 3.328125 -16.890625 2.648438 -17.453125 1.296875 -17.453125 L 0.96875 -17.453125 L 0.96875 -17.703125 L 8.1875 -17.703125 L 8.1875 -17.453125 L 7.859375 -17.453125 C 6.503906 -17.453125 5.828125 -16.859375 5.828125 -15.671875 L 5.828125 -9.375 L 13.859375 -9.375 L 13.859375 -15.671875 C 13.859375 -16.859375 13.179688 -17.453125 11.828125 -17.453125 L 11.5 -17.453125 L 11.5 -17.703125 L 18.71875 -17.703125 L 18.71875 -17.453125 L 18.40625 -17.453125 C 17.039062 -17.453125 16.359375 -16.890625 16.359375 -15.765625 L 16.359375 -2.03125 C 16.359375 -0.84375 17.039062 -0.25 18.40625 -0.25 L 18.71875 -0.25 L 18.71875 0 L 11.5 0 L 11.5 -0.25 L 11.828125 -0.25 C 13.179688 -0.25 13.859375 -0.84375 13.859375 -2.03125 L 13.859375 -9.125 L 5.828125 -9.125 L 5.828125 -2.03125 C 5.828125 -0.84375 6.503906 -0.25 7.859375 -0.25 L 8.1875 -0.25 L 8.1875 0 Z M 0.96875 0 "/></g></g></g></svg>